<mxfile host="app.diagrams.net" modified="2024-01-23T20:03:52.552Z" agent="Mozilla/5.0 (Windows NT 10.0; Win64; x64; rv:121.0) Gecko/20100101 Firefox/121.0" etag="TTJneQcmzbLpEw56eatr" version="22.1.22" type="device">
  <diagram name="Page-1" id="YvsTHPCTIXLpTZI9YfE7">
    <mxGraphModel dx="1615" dy="-229" grid="1" gridSize="10" guides="1" tooltips="1" connect="1" arrows="1" fold="1" page="1" pageScale="1" pageWidth="850" pageHeight="1100" math="0" shadow="0">
      <root>
        <mxCell id="0" />
        <mxCell id="1" parent="0" />
        <mxCell id="F0BfJw0g09WCWPjjvVez-20" value="Nurse" style="swimlane;fontStyle=0;childLayout=stackLayout;horizontal=1;startSize=26;horizontalStack=0;resizeParent=1;resizeParentMax=0;resizeLast=0;collapsible=1;marginBottom=0;align=center;fontSize=15;" parent="1" vertex="1">
          <mxGeometry x="275" y="1400" width="240" height="202" as="geometry" />
        </mxCell>
        <mxCell id="F0BfJw0g09WCWPjjvVez-31" value="&lt;font style=&quot;font-size: 18px;&quot;&gt;&amp;nbsp;Number&lt;/font&gt;" style="text;strokeColor=none;fillColor=none;spacingLeft=4;spacingRight=4;overflow=hidden;rotatable=0;points=[[0,0.5],[1,0.5]];portConstraint=eastwest;fontSize=12;whiteSpace=wrap;html=1;" parent="F0BfJw0g09WCWPjjvVez-20" vertex="1">
          <mxGeometry y="26" width="240" height="44" as="geometry" />
        </mxCell>
        <mxCell id="F0BfJw0g09WCWPjjvVez-32" value="" style="endArrow=none;html=1;rounded=0;" parent="F0BfJw0g09WCWPjjvVez-20" edge="1">
          <mxGeometry relative="1" as="geometry">
            <mxPoint x="10" y="56" as="sourcePoint" />
            <mxPoint x="80" y="56" as="targetPoint" />
          </mxGeometry>
        </mxCell>
        <mxCell id="F0BfJw0g09WCWPjjvVez-21" value="&lt;font style=&quot;font-size: 18px;&quot;&gt;&amp;nbsp;Name&lt;/font&gt;" style="text;strokeColor=none;fillColor=none;spacingLeft=4;spacingRight=4;overflow=hidden;rotatable=0;points=[[0,0.5],[1,0.5]];portConstraint=eastwest;fontSize=12;whiteSpace=wrap;html=1;" parent="F0BfJw0g09WCWPjjvVez-20" vertex="1">
          <mxGeometry y="70" width="240" height="44" as="geometry" />
        </mxCell>
        <mxCell id="F0BfJw0g09WCWPjjvVez-22" value="&lt;font style=&quot;font-size: 18px;&quot;&gt;&amp;nbsp;Address&lt;/font&gt;" style="text;strokeColor=none;fillColor=none;spacingLeft=4;spacingRight=4;overflow=hidden;rotatable=0;points=[[0,0.5],[1,0.5]];portConstraint=eastwest;fontSize=12;whiteSpace=wrap;html=1;" parent="F0BfJw0g09WCWPjjvVez-20" vertex="1">
          <mxGeometry y="114" width="240" height="44" as="geometry" />
        </mxCell>
        <mxCell id="F0BfJw0g09WCWPjjvVez-23" value="&lt;div&gt;&lt;font style=&quot;font-size: 18px;&quot;&gt;&amp;nbsp;Ward_id&lt;/font&gt;&lt;/div&gt;&lt;div&gt;&lt;font style=&quot;font-size: 18px;&quot;&gt;&lt;br&gt;&lt;/font&gt;&lt;/div&gt;&lt;div&gt;&lt;font style=&quot;font-size: 18px;&quot;&gt;&lt;br&gt;&lt;/font&gt;&lt;/div&gt;&lt;div&gt;&lt;font style=&quot;font-size: 18px;&quot;&gt;&lt;br&gt;&lt;/font&gt;&lt;/div&gt;" style="text;strokeColor=none;fillColor=none;spacingLeft=4;spacingRight=4;overflow=hidden;rotatable=0;points=[[0,0.5],[1,0.5]];portConstraint=eastwest;fontSize=12;whiteSpace=wrap;html=1;" parent="F0BfJw0g09WCWPjjvVez-20" vertex="1">
          <mxGeometry y="158" width="240" height="44" as="geometry" />
        </mxCell>
        <mxCell id="F0BfJw0g09WCWPjjvVez-39" value="Ward" style="swimlane;fontStyle=0;childLayout=stackLayout;horizontal=1;startSize=26;horizontalStack=0;resizeParent=1;resizeParentMax=0;resizeLast=0;collapsible=1;marginBottom=0;align=center;fontSize=15;" parent="1" vertex="1">
          <mxGeometry x="270" y="1130" width="250" height="158" as="geometry" />
        </mxCell>
        <mxCell id="F0BfJw0g09WCWPjjvVez-40" value="&lt;font style=&quot;font-size: 18px;&quot;&gt;&amp;nbsp;Ward_id&lt;/font&gt;" style="text;strokeColor=none;fillColor=none;spacingLeft=4;spacingRight=4;overflow=hidden;rotatable=0;points=[[0,0.5],[1,0.5]];portConstraint=eastwest;fontSize=12;whiteSpace=wrap;html=1;" parent="F0BfJw0g09WCWPjjvVez-39" vertex="1">
          <mxGeometry y="26" width="250" height="44" as="geometry" />
        </mxCell>
        <mxCell id="F0BfJw0g09WCWPjjvVez-48" value="" style="endArrow=none;html=1;rounded=0;" parent="F0BfJw0g09WCWPjjvVez-39" edge="1">
          <mxGeometry relative="1" as="geometry">
            <mxPoint x="10" y="59.47000000000003" as="sourcePoint" />
            <mxPoint x="80" y="59" as="targetPoint" />
          </mxGeometry>
        </mxCell>
        <mxCell id="F0BfJw0g09WCWPjjvVez-41" value="&lt;font style=&quot;font-size: 18px;&quot;&gt;&amp;nbsp;Name&lt;/font&gt;" style="text;strokeColor=none;fillColor=none;spacingLeft=4;spacingRight=4;overflow=hidden;rotatable=0;points=[[0,0.5],[1,0.5]];portConstraint=eastwest;fontSize=12;whiteSpace=wrap;html=1;" parent="F0BfJw0g09WCWPjjvVez-39" vertex="1">
          <mxGeometry y="70" width="250" height="44" as="geometry" />
        </mxCell>
        <mxCell id="5QdeBWizPzyT0nGeT2xJ-1" value="&lt;font style=&quot;font-size: 18px;&quot;&gt;&amp;nbsp;Nurse_num&lt;/font&gt;" style="text;strokeColor=none;fillColor=none;spacingLeft=4;spacingRight=4;overflow=hidden;rotatable=0;points=[[0,0.5],[1,0.5]];portConstraint=eastwest;fontSize=12;whiteSpace=wrap;html=1;" vertex="1" parent="F0BfJw0g09WCWPjjvVez-39">
          <mxGeometry y="114" width="250" height="44" as="geometry" />
        </mxCell>
        <mxCell id="F0BfJw0g09WCWPjjvVez-51" value="Patient" style="swimlane;fontStyle=0;childLayout=stackLayout;horizontal=1;startSize=26;horizontalStack=0;resizeParent=1;resizeParentMax=0;resizeLast=0;collapsible=1;marginBottom=0;align=center;fontSize=14;" parent="1" vertex="1">
          <mxGeometry x="760" y="1154" width="250" height="246" as="geometry" />
        </mxCell>
        <mxCell id="F0BfJw0g09WCWPjjvVez-52" value="&lt;font style=&quot;font-size: 18px;&quot;&gt;&amp;nbsp;Id_number&lt;/font&gt;" style="text;strokeColor=none;fillColor=none;spacingLeft=4;spacingRight=4;overflow=hidden;rotatable=0;points=[[0,0.5],[1,0.5]];portConstraint=eastwest;fontSize=12;whiteSpace=wrap;html=1;" parent="F0BfJw0g09WCWPjjvVez-51" vertex="1">
          <mxGeometry y="26" width="250" height="44" as="geometry" />
        </mxCell>
        <mxCell id="F0BfJw0g09WCWPjjvVez-53" value="" style="endArrow=none;html=1;rounded=0;entryX=0.4;entryY=0.75;entryDx=0;entryDy=0;entryPerimeter=0;" parent="F0BfJw0g09WCWPjjvVez-51" target="F0BfJw0g09WCWPjjvVez-52" edge="1">
          <mxGeometry relative="1" as="geometry">
            <mxPoint x="10" y="59.47000000000003" as="sourcePoint" />
            <mxPoint x="80" y="59" as="targetPoint" />
          </mxGeometry>
        </mxCell>
        <mxCell id="F0BfJw0g09WCWPjjvVez-54" value="&lt;font style=&quot;font-size: 18px;&quot;&gt;Name&lt;/font&gt;" style="text;strokeColor=none;fillColor=none;spacingLeft=4;spacingRight=4;overflow=hidden;rotatable=0;points=[[0,0.5],[1,0.5]];portConstraint=eastwest;fontSize=12;whiteSpace=wrap;html=1;" parent="F0BfJw0g09WCWPjjvVez-51" vertex="1">
          <mxGeometry y="70" width="250" height="44" as="geometry" />
        </mxCell>
        <mxCell id="F0BfJw0g09WCWPjjvVez-56" value="&lt;font style=&quot;font-size: 18px;&quot;&gt;DateOfBirth&lt;/font&gt;" style="text;strokeColor=none;fillColor=none;spacingLeft=4;spacingRight=4;overflow=hidden;rotatable=0;points=[[0,0.5],[1,0.5]];portConstraint=eastwest;fontSize=12;whiteSpace=wrap;html=1;" parent="F0BfJw0g09WCWPjjvVez-51" vertex="1">
          <mxGeometry y="114" width="250" height="44" as="geometry" />
        </mxCell>
        <mxCell id="F0BfJw0g09WCWPjjvVez-57" value="&lt;font style=&quot;font-size: 18px;&quot;&gt;Ward_id&lt;/font&gt;" style="text;strokeColor=none;fillColor=none;spacingLeft=4;spacingRight=4;overflow=hidden;rotatable=0;points=[[0,0.5],[1,0.5]];portConstraint=eastwest;fontSize=12;whiteSpace=wrap;html=1;" parent="F0BfJw0g09WCWPjjvVez-51" vertex="1">
          <mxGeometry y="158" width="250" height="44" as="geometry" />
        </mxCell>
        <mxCell id="F0BfJw0g09WCWPjjvVez-58" value="&lt;font style=&quot;font-size: 18px;&quot;&gt;Con_id&lt;/font&gt;" style="text;strokeColor=none;fillColor=none;spacingLeft=4;spacingRight=4;overflow=hidden;rotatable=0;points=[[0,0.5],[1,0.5]];portConstraint=eastwest;fontSize=12;whiteSpace=wrap;html=1;" parent="F0BfJw0g09WCWPjjvVez-51" vertex="1">
          <mxGeometry y="202" width="250" height="44" as="geometry" />
        </mxCell>
        <mxCell id="F0BfJw0g09WCWPjjvVez-63" value="Consultant" style="swimlane;fontStyle=0;childLayout=stackLayout;horizontal=1;startSize=26;horizontalStack=0;resizeParent=1;resizeParentMax=0;resizeLast=0;collapsible=1;marginBottom=0;align=center;fontSize=14;" parent="1" vertex="1">
          <mxGeometry x="1240" y="1470" width="250" height="114" as="geometry" />
        </mxCell>
        <mxCell id="F0BfJw0g09WCWPjjvVez-64" value="&lt;font style=&quot;font-size: 18px;&quot;&gt;&amp;nbsp;Consultant_id&lt;/font&gt;" style="text;strokeColor=none;fillColor=none;spacingLeft=4;spacingRight=4;overflow=hidden;rotatable=0;points=[[0,0.5],[1,0.5]];portConstraint=eastwest;fontSize=12;whiteSpace=wrap;html=1;" parent="F0BfJw0g09WCWPjjvVez-63" vertex="1">
          <mxGeometry y="26" width="250" height="44" as="geometry" />
        </mxCell>
        <mxCell id="F0BfJw0g09WCWPjjvVez-65" value="" style="endArrow=none;html=1;rounded=0;entryX=0.48;entryY=0.773;entryDx=0;entryDy=0;entryPerimeter=0;" parent="F0BfJw0g09WCWPjjvVez-63" edge="1" target="F0BfJw0g09WCWPjjvVez-64">
          <mxGeometry relative="1" as="geometry">
            <mxPoint x="10" y="59.47000000000003" as="sourcePoint" />
            <mxPoint x="80" y="59" as="targetPoint" />
          </mxGeometry>
        </mxCell>
        <mxCell id="F0BfJw0g09WCWPjjvVez-66" value="&lt;font style=&quot;font-size: 18px;&quot;&gt;&amp;nbsp;Name&lt;/font&gt;" style="text;strokeColor=none;fillColor=none;spacingLeft=4;spacingRight=4;overflow=hidden;rotatable=0;points=[[0,0.5],[1,0.5]];portConstraint=eastwest;fontSize=12;whiteSpace=wrap;html=1;" parent="F0BfJw0g09WCWPjjvVez-63" vertex="1">
          <mxGeometry y="70" width="250" height="44" as="geometry" />
        </mxCell>
        <mxCell id="F0BfJw0g09WCWPjjvVez-68" value="Drug" style="swimlane;fontStyle=0;childLayout=stackLayout;horizontal=1;startSize=26;horizontalStack=0;resizeParent=1;resizeParentMax=0;resizeLast=0;collapsible=1;marginBottom=0;align=center;fontSize=14;" parent="1" vertex="1">
          <mxGeometry x="760" y="1880" width="250" height="114" as="geometry" />
        </mxCell>
        <mxCell id="F0BfJw0g09WCWPjjvVez-69" value="&lt;font style=&quot;font-size: 18px;&quot;&gt;&amp;nbsp;Code_num&lt;/font&gt;" style="text;strokeColor=none;fillColor=none;spacingLeft=4;spacingRight=4;overflow=hidden;rotatable=0;points=[[0,0.5],[1,0.5]];portConstraint=eastwest;fontSize=12;whiteSpace=wrap;html=1;" parent="F0BfJw0g09WCWPjjvVez-68" vertex="1">
          <mxGeometry y="26" width="250" height="44" as="geometry" />
        </mxCell>
        <mxCell id="F0BfJw0g09WCWPjjvVez-70" value="" style="endArrow=none;html=1;rounded=0;entryX=0.4;entryY=0.75;entryDx=0;entryDy=0;entryPerimeter=0;" parent="F0BfJw0g09WCWPjjvVez-68" target="F0BfJw0g09WCWPjjvVez-69" edge="1">
          <mxGeometry relative="1" as="geometry">
            <mxPoint x="10" y="59.47000000000003" as="sourcePoint" />
            <mxPoint x="80" y="59" as="targetPoint" />
          </mxGeometry>
        </mxCell>
        <mxCell id="F0BfJw0g09WCWPjjvVez-71" value="&lt;font style=&quot;font-size: 18px;&quot;&gt;Recommended_dosage&lt;/font&gt;" style="text;strokeColor=none;fillColor=none;spacingLeft=4;spacingRight=4;overflow=hidden;rotatable=0;points=[[0,0.5],[1,0.5]];portConstraint=eastwest;fontSize=12;whiteSpace=wrap;html=1;" parent="F0BfJw0g09WCWPjjvVez-68" vertex="1">
          <mxGeometry y="70" width="250" height="44" as="geometry" />
        </mxCell>
        <mxCell id="F0BfJw0g09WCWPjjvVez-80" value="Patient_Consultant" style="swimlane;fontStyle=0;childLayout=stackLayout;horizontal=1;startSize=26;horizontalStack=0;resizeParent=1;resizeParentMax=0;resizeLast=0;collapsible=1;marginBottom=0;align=center;fontSize=14;" parent="1" vertex="1">
          <mxGeometry x="760" y="1470" width="250" height="114" as="geometry" />
        </mxCell>
        <mxCell id="F0BfJw0g09WCWPjjvVez-82" value="" style="endArrow=none;html=1;rounded=0;entryX=0.4;entryY=0.75;entryDx=0;entryDy=0;entryPerimeter=0;" parent="F0BfJw0g09WCWPjjvVez-80" target="F0BfJw0g09WCWPjjvVez-81" edge="1">
          <mxGeometry relative="1" as="geometry">
            <mxPoint x="10" y="59.47000000000003" as="sourcePoint" />
            <mxPoint x="80" y="59" as="targetPoint" />
          </mxGeometry>
        </mxCell>
        <mxCell id="F0BfJw0g09WCWPjjvVez-81" value="&lt;font style=&quot;font-size: 18px;&quot;&gt;&amp;nbsp;Patient_Id&lt;/font&gt;" style="text;strokeColor=none;fillColor=none;spacingLeft=4;spacingRight=4;overflow=hidden;rotatable=0;points=[[0,0.5],[1,0.5]];portConstraint=eastwest;fontSize=12;whiteSpace=wrap;html=1;" parent="F0BfJw0g09WCWPjjvVez-80" vertex="1">
          <mxGeometry y="26" width="250" height="44" as="geometry" />
        </mxCell>
        <mxCell id="F0BfJw0g09WCWPjjvVez-83" value="&lt;font style=&quot;font-size: 18px;&quot;&gt;Consultant_id&lt;/font&gt;" style="text;strokeColor=none;fillColor=none;spacingLeft=4;spacingRight=4;overflow=hidden;rotatable=0;points=[[0,0.5],[1,0.5]];portConstraint=eastwest;fontSize=12;whiteSpace=wrap;html=1;" parent="F0BfJw0g09WCWPjjvVez-80" vertex="1">
          <mxGeometry y="70" width="250" height="44" as="geometry" />
        </mxCell>
        <mxCell id="5QdeBWizPzyT0nGeT2xJ-2" value="" style="endArrow=none;html=1;rounded=0;" edge="1" parent="F0BfJw0g09WCWPjjvVez-80">
          <mxGeometry relative="1" as="geometry">
            <mxPoint x="12.5" y="106.47000000000003" as="sourcePoint" />
            <mxPoint x="122.5" y="106" as="targetPoint" />
          </mxGeometry>
        </mxCell>
        <mxCell id="F0BfJw0g09WCWPjjvVez-90" value="Gives" style="swimlane;fontStyle=0;childLayout=stackLayout;horizontal=1;startSize=26;horizontalStack=0;resizeParent=1;resizeParentMax=0;resizeLast=0;collapsible=1;marginBottom=0;align=center;fontSize=14;" parent="1" vertex="1">
          <mxGeometry x="270" y="1720" width="270" height="290" as="geometry" />
        </mxCell>
        <mxCell id="F0BfJw0g09WCWPjjvVez-91" value="&lt;font style=&quot;font-size: 18px;&quot;&gt;&amp;nbsp;Nurse_num&lt;/font&gt;" style="text;strokeColor=none;fillColor=none;spacingLeft=4;spacingRight=4;overflow=hidden;rotatable=0;points=[[0,0.5],[1,0.5]];portConstraint=eastwest;fontSize=12;whiteSpace=wrap;html=1;" parent="F0BfJw0g09WCWPjjvVez-90" vertex="1">
          <mxGeometry y="26" width="270" height="44" as="geometry" />
        </mxCell>
        <mxCell id="F0BfJw0g09WCWPjjvVez-92" value="" style="endArrow=none;html=1;rounded=0;entryX=0.4;entryY=0.75;entryDx=0;entryDy=0;entryPerimeter=0;" parent="F0BfJw0g09WCWPjjvVez-90" target="F0BfJw0g09WCWPjjvVez-91" edge="1">
          <mxGeometry relative="1" as="geometry">
            <mxPoint x="10" y="59.47000000000003" as="sourcePoint" />
            <mxPoint x="80" y="59" as="targetPoint" />
          </mxGeometry>
        </mxCell>
        <mxCell id="F0BfJw0g09WCWPjjvVez-93" value="&lt;font style=&quot;font-size: 18px;&quot;&gt;Patient_id&lt;/font&gt;" style="text;strokeColor=none;fillColor=none;spacingLeft=4;spacingRight=4;overflow=hidden;rotatable=0;points=[[0,0.5],[1,0.5]];portConstraint=eastwest;fontSize=12;whiteSpace=wrap;html=1;" parent="F0BfJw0g09WCWPjjvVez-90" vertex="1">
          <mxGeometry y="70" width="270" height="44" as="geometry" />
        </mxCell>
        <mxCell id="5QdeBWizPzyT0nGeT2xJ-4" value="" style="endArrow=none;html=1;rounded=0;" edge="1" parent="F0BfJw0g09WCWPjjvVez-90">
          <mxGeometry relative="1" as="geometry">
            <mxPoint x="5" y="100.47000000000003" as="sourcePoint" />
            <mxPoint x="90" y="100" as="targetPoint" />
          </mxGeometry>
        </mxCell>
        <mxCell id="F0BfJw0g09WCWPjjvVez-94" value="&lt;font style=&quot;font-size: 18px;&quot;&gt;Drug_code&lt;/font&gt;" style="text;strokeColor=none;fillColor=none;spacingLeft=4;spacingRight=4;overflow=hidden;rotatable=0;points=[[0,0.5],[1,0.5]];portConstraint=eastwest;fontSize=12;whiteSpace=wrap;html=1;" parent="F0BfJw0g09WCWPjjvVez-90" vertex="1">
          <mxGeometry y="114" width="270" height="44" as="geometry" />
        </mxCell>
        <mxCell id="5QdeBWizPzyT0nGeT2xJ-5" value="" style="endArrow=none;html=1;rounded=0;" edge="1" parent="F0BfJw0g09WCWPjjvVez-90">
          <mxGeometry relative="1" as="geometry">
            <mxPoint x="5" y="145.06999999999994" as="sourcePoint" />
            <mxPoint x="100" y="145" as="targetPoint" />
          </mxGeometry>
        </mxCell>
        <mxCell id="F0BfJw0g09WCWPjjvVez-95" value="&lt;font style=&quot;font-size: 18px;&quot;&gt;Date&lt;/font&gt;" style="text;strokeColor=none;fillColor=none;spacingLeft=4;spacingRight=4;overflow=hidden;rotatable=0;points=[[0,0.5],[1,0.5]];portConstraint=eastwest;fontSize=12;whiteSpace=wrap;html=1;" parent="F0BfJw0g09WCWPjjvVez-90" vertex="1">
          <mxGeometry y="158" width="270" height="44" as="geometry" />
        </mxCell>
        <mxCell id="F0BfJw0g09WCWPjjvVez-99" value="&lt;font style=&quot;font-size: 18px;&quot;&gt;Time&lt;br&gt;&lt;/font&gt;" style="text;strokeColor=none;fillColor=none;spacingLeft=4;spacingRight=4;overflow=hidden;rotatable=0;points=[[0,0.5],[1,0.5]];portConstraint=eastwest;fontSize=12;whiteSpace=wrap;html=1;" parent="F0BfJw0g09WCWPjjvVez-90" vertex="1">
          <mxGeometry y="202" width="270" height="44" as="geometry" />
        </mxCell>
        <mxCell id="5QdeBWizPzyT0nGeT2xJ-3" value="&lt;font style=&quot;font-size: 18px;&quot;&gt;Dosage&lt;br&gt;&lt;/font&gt;" style="text;strokeColor=none;fillColor=none;spacingLeft=4;spacingRight=4;overflow=hidden;rotatable=0;points=[[0,0.5],[1,0.5]];portConstraint=eastwest;fontSize=12;whiteSpace=wrap;html=1;" vertex="1" parent="F0BfJw0g09WCWPjjvVez-90">
          <mxGeometry y="246" width="270" height="44" as="geometry" />
        </mxCell>
        <mxCell id="F0BfJw0g09WCWPjjvVez-100" value="Drug_Brand" style="swimlane;fontStyle=0;childLayout=stackLayout;horizontal=1;startSize=26;horizontalStack=0;resizeParent=1;resizeParentMax=0;resizeLast=0;collapsible=1;marginBottom=0;align=center;fontSize=14;" parent="1" vertex="1">
          <mxGeometry x="760" y="1680" width="250" height="114" as="geometry" />
        </mxCell>
        <mxCell id="F0BfJw0g09WCWPjjvVez-101" value="&lt;font style=&quot;font-size: 18px;&quot;&gt;&amp;nbsp;Code_num&lt;/font&gt;" style="text;strokeColor=none;fillColor=none;spacingLeft=4;spacingRight=4;overflow=hidden;rotatable=0;points=[[0,0.5],[1,0.5]];portConstraint=eastwest;fontSize=12;whiteSpace=wrap;html=1;" parent="F0BfJw0g09WCWPjjvVez-100" vertex="1">
          <mxGeometry y="26" width="250" height="44" as="geometry" />
        </mxCell>
        <mxCell id="F0BfJw0g09WCWPjjvVez-102" value="" style="endArrow=none;html=1;rounded=0;" parent="F0BfJw0g09WCWPjjvVez-100" edge="1">
          <mxGeometry relative="1" as="geometry">
            <mxPoint x="10" y="59.47000000000003" as="sourcePoint" />
            <mxPoint x="80" y="59" as="targetPoint" />
          </mxGeometry>
        </mxCell>
        <mxCell id="F0BfJw0g09WCWPjjvVez-103" value="&lt;font style=&quot;font-size: 18px;&quot;&gt;&amp;nbsp;Brand_name&lt;/font&gt;" style="text;strokeColor=none;fillColor=none;spacingLeft=4;spacingRight=4;overflow=hidden;rotatable=0;points=[[0,0.5],[1,0.5]];portConstraint=eastwest;fontSize=12;whiteSpace=wrap;html=1;" parent="F0BfJw0g09WCWPjjvVez-100" vertex="1">
          <mxGeometry y="70" width="250" height="44" as="geometry" />
        </mxCell>
        <mxCell id="F0BfJw0g09WCWPjjvVez-104" value="" style="endArrow=none;html=1;rounded=0;" parent="F0BfJw0g09WCWPjjvVez-100" edge="1">
          <mxGeometry relative="1" as="geometry">
            <mxPoint x="10" y="100" as="sourcePoint" />
            <mxPoint x="130" y="100" as="targetPoint" />
          </mxGeometry>
        </mxCell>
        <mxCell id="5QdeBWizPzyT0nGeT2xJ-9" style="edgeStyle=orthogonalEdgeStyle;rounded=0;orthogonalLoop=1;jettySize=auto;html=1;exitX=0;exitY=0.5;exitDx=0;exitDy=0;entryX=0;entryY=0.5;entryDx=0;entryDy=0;" edge="1" parent="1" source="5QdeBWizPzyT0nGeT2xJ-1" target="F0BfJw0g09WCWPjjvVez-31">
          <mxGeometry relative="1" as="geometry">
            <Array as="points">
              <mxPoint x="240" y="1266" />
              <mxPoint x="240" y="1448" />
            </Array>
          </mxGeometry>
        </mxCell>
        <mxCell id="5QdeBWizPzyT0nGeT2xJ-11" style="edgeStyle=orthogonalEdgeStyle;rounded=0;orthogonalLoop=1;jettySize=auto;html=1;exitX=0;exitY=0.5;exitDx=0;exitDy=0;entryX=0;entryY=0.5;entryDx=0;entryDy=0;" edge="1" parent="1" source="F0BfJw0g09WCWPjjvVez-23" target="F0BfJw0g09WCWPjjvVez-40">
          <mxGeometry relative="1" as="geometry">
            <Array as="points">
              <mxPoint x="200" y="1580" />
              <mxPoint x="200" y="1178" />
            </Array>
          </mxGeometry>
        </mxCell>
        <mxCell id="5QdeBWizPzyT0nGeT2xJ-18" style="edgeStyle=orthogonalEdgeStyle;rounded=0;orthogonalLoop=1;jettySize=auto;html=1;exitX=1;exitY=0.5;exitDx=0;exitDy=0;entryX=1;entryY=0.5;entryDx=0;entryDy=0;" edge="1" parent="1" source="F0BfJw0g09WCWPjjvVez-91" target="F0BfJw0g09WCWPjjvVez-31">
          <mxGeometry relative="1" as="geometry" />
        </mxCell>
        <mxCell id="5QdeBWizPzyT0nGeT2xJ-25" style="edgeStyle=orthogonalEdgeStyle;rounded=0;orthogonalLoop=1;jettySize=auto;html=1;exitX=1;exitY=0.5;exitDx=0;exitDy=0;entryX=1;entryY=0.5;entryDx=0;entryDy=0;" edge="1" parent="1" source="F0BfJw0g09WCWPjjvVez-57" target="F0BfJw0g09WCWPjjvVez-40">
          <mxGeometry relative="1" as="geometry">
            <Array as="points">
              <mxPoint x="1080" y="1334" />
              <mxPoint x="1080" y="1120" />
              <mxPoint x="600" y="1120" />
              <mxPoint x="600" y="1178" />
            </Array>
          </mxGeometry>
        </mxCell>
        <mxCell id="5QdeBWizPzyT0nGeT2xJ-26" style="edgeStyle=orthogonalEdgeStyle;rounded=0;orthogonalLoop=1;jettySize=auto;html=1;exitX=1;exitY=0.5;exitDx=0;exitDy=0;" edge="1" parent="1" source="F0BfJw0g09WCWPjjvVez-93">
          <mxGeometry relative="1" as="geometry">
            <mxPoint x="760" y="1191" as="targetPoint" />
            <Array as="points">
              <mxPoint x="640" y="1812" />
              <mxPoint x="640" y="1191" />
            </Array>
          </mxGeometry>
        </mxCell>
        <mxCell id="5QdeBWizPzyT0nGeT2xJ-27" style="edgeStyle=orthogonalEdgeStyle;rounded=0;orthogonalLoop=1;jettySize=auto;html=1;exitX=0;exitY=0.5;exitDx=0;exitDy=0;entryX=0;entryY=0.5;entryDx=0;entryDy=0;" edge="1" parent="1" source="F0BfJw0g09WCWPjjvVez-81" target="F0BfJw0g09WCWPjjvVez-52">
          <mxGeometry relative="1" as="geometry">
            <Array as="points">
              <mxPoint x="720" y="1518" />
              <mxPoint x="720" y="1202" />
            </Array>
          </mxGeometry>
        </mxCell>
        <mxCell id="5QdeBWizPzyT0nGeT2xJ-30" style="edgeStyle=orthogonalEdgeStyle;rounded=0;orthogonalLoop=1;jettySize=auto;html=1;exitX=1;exitY=0.5;exitDx=0;exitDy=0;" edge="1" parent="1" source="F0BfJw0g09WCWPjjvVez-94">
          <mxGeometry relative="1" as="geometry">
            <mxPoint x="760" y="1937" as="targetPoint" />
            <Array as="points">
              <mxPoint x="640" y="1856" />
              <mxPoint x="640" y="1937" />
            </Array>
          </mxGeometry>
        </mxCell>
        <mxCell id="5QdeBWizPzyT0nGeT2xJ-31" style="edgeStyle=orthogonalEdgeStyle;rounded=0;orthogonalLoop=1;jettySize=auto;html=1;exitX=0;exitY=0.5;exitDx=0;exitDy=0;entryX=0;entryY=0.5;entryDx=0;entryDy=0;" edge="1" parent="1" source="F0BfJw0g09WCWPjjvVez-101" target="F0BfJw0g09WCWPjjvVez-69">
          <mxGeometry relative="1" as="geometry">
            <Array as="points">
              <mxPoint x="720" y="1728" />
              <mxPoint x="720" y="1928" />
            </Array>
          </mxGeometry>
        </mxCell>
        <mxCell id="5QdeBWizPzyT0nGeT2xJ-33" style="edgeStyle=orthogonalEdgeStyle;rounded=0;orthogonalLoop=1;jettySize=auto;html=1;exitX=1;exitY=0.5;exitDx=0;exitDy=0;entryX=0;entryY=0.5;entryDx=0;entryDy=0;" edge="1" parent="1" source="F0BfJw0g09WCWPjjvVez-83" target="F0BfJw0g09WCWPjjvVez-64">
          <mxGeometry relative="1" as="geometry">
            <Array as="points">
              <mxPoint x="1120" y="1562" />
              <mxPoint x="1120" y="1518" />
            </Array>
          </mxGeometry>
        </mxCell>
        <mxCell id="5QdeBWizPzyT0nGeT2xJ-34" style="edgeStyle=orthogonalEdgeStyle;rounded=0;orthogonalLoop=1;jettySize=auto;html=1;exitX=1;exitY=0.5;exitDx=0;exitDy=0;entryX=-0.004;entryY=0.273;entryDx=0;entryDy=0;entryPerimeter=0;" edge="1" parent="1" source="F0BfJw0g09WCWPjjvVez-58" target="F0BfJw0g09WCWPjjvVez-64">
          <mxGeometry relative="1" as="geometry">
            <Array as="points">
              <mxPoint x="1120" y="1378" />
              <mxPoint x="1120" y="1508" />
            </Array>
          </mxGeometry>
        </mxCell>
      </root>
    </mxGraphModel>
  </diagram>
</mxfile>
